<?xml version="1.0" encoding="UTF-8" standalone="no"?>
<svg
   xmlns:dc="http://purl.org/dc/elements/1.1/"
   xmlns:cc="http://creativecommons.org/ns#"
   xmlns:rdf="http://www.w3.org/1999/02/22-rdf-syntax-ns#"
   xmlns:svg="http://www.w3.org/2000/svg"
   xmlns="http://www.w3.org/2000/svg"
   xmlns:sodipodi="http://sodipodi.sourceforge.net/DTD/sodipodi-0.dtd"
   xmlns:inkscape="http://www.inkscape.org/namespaces/inkscape"
   width="210mm"
   height="297mm"
   viewBox="0 0 210 297"
   version="1.1"
   id="svg8"
   sodipodi:docname="plaga-one.svg"
   inkscape:version="0.92.4 (5da689c313, 2019-01-14)">
  <defs
     id="defs2" />
  <sodipodi:namedview
     id="base"
     pagecolor="#ffffff"
     bordercolor="#666666"
     borderopacity="1.0"
     inkscape:pageopacity="0.0"
     inkscape:pageshadow="2"
     inkscape:zoom="0.12504662"
     inkscape:cx="-1261.2732"
     inkscape:cy="1373.6629"
     inkscape:document-units="mm"
     inkscape:current-layer="layer1"
     inkscape:document-rotation="0"
     showgrid="false"
     inkscape:window-width="1280"
     inkscape:window-height="962"
     inkscape:window-x="-8"
     inkscape:window-y="-8"
     inkscape:window-maximized="1"
     inkscape:snap-global="false"
     showguides="true"
     inkscape:guide-bbox="true">
    <sodipodi:guide
       position="-42.717897,287.03431"
       orientation="0,1"
       id="guide1100"
       inkscape:locked="false" />
    <sodipodi:guide
       position="-40.188548,306.70702"
       orientation="0,1"
       id="guide1102"
       inkscape:locked="false" />
    <sodipodi:guide
       position="-42.811577,302.58512"
       orientation="0,1"
       id="guide1104"
       inkscape:locked="false" />
    <sodipodi:guide
       position="-47.027159,343.24207"
       orientation="1,0"
       id="guide1173"
       inkscape:locked="false" />
    <sodipodi:guide
       position="-67.73035,336.87185"
       orientation="1,0"
       id="guide1175"
       inkscape:locked="false" />
    <sodipodi:guide
       position="-27.729161,328.81541"
       orientation="1,0"
       id="guide1177"
       inkscape:locked="false" />
    <sodipodi:guide
       position="-22.919552,290.66763"
       orientation="0,1"
       id="guide1209"
       inkscape:locked="false" />
    <sodipodi:guide
       position="-38.314956,309.51741"
       orientation="0,1"
       id="guide1224"
       inkscape:locked="false" />
    <sodipodi:guide
       position="-33.068898,306.3323"
       orientation="0,1"
       id="guide1226"
       inkscape:locked="false" />
    <sodipodi:guide
       position="-38.05573,307.75793"
       orientation="0,1"
       id="guide1228"
       inkscape:locked="false" />
    <sodipodi:guide
       position="53.678411,317.33965"
       orientation="0,1"
       id="guide1382"
       inkscape:locked="false" />
    <sodipodi:guide
       position="53.912609,318.74485"
       orientation="0,1"
       id="guide1384"
       inkscape:locked="false" />
    <sodipodi:guide
       position="51.617459,236.63468"
       orientation="0,1"
       id="guide1514"
       inkscape:locked="false" />
    <sodipodi:guide
       position="44.448034,248.27307"
       orientation="0,1"
       id="guide1516"
       inkscape:locked="false" />
  </sodipodi:namedview>
  <metadata
     id="metadata5">
    <rdf:RDF>
      <cc:Work
         rdf:about="">
        <dc:format>image/svg+xml</dc:format>
        <dc:type
           rdf:resource="http://purl.org/dc/dcmitype/StillImage" />
      </cc:Work>
    </rdf:RDF>
  </metadata>
  <g
     inkscape:label="Capa 1"
     inkscape:groupmode="layer"
     id="layer1">
    <path
       style="fill:#e6e6e6;stroke:#000000;stroke-width:0.26458332px;stroke-linecap:butt;stroke-linejoin:miter;stroke-opacity:1"
       d="m 87.015464,220.56392 c 0,0 17.297316,-4.72935 26.183986,-5.28968 11.99851,-0.75655 35.96992,2.64483 35.96992,2.64483"
       id="path2561"
       inkscape:connector-curvature="0"
       sodipodi:nodetypes="csc" />
    <path
       style="fill:none;stroke:#000000;stroke-width:4;stroke-linecap:round;stroke-linejoin:round;stroke-miterlimit:4;stroke-dasharray:none;stroke-opacity:1"
       d="m 126.88953,186.1194 5.29979,15.8551 -2.78937,17.87914 5.02087,2.36138"
       id="path2557"
       inkscape:connector-curvature="0" />
    <path
       style="fill:none;stroke:#000000;stroke-width:4;stroke-linecap:round;stroke-linejoin:round;stroke-miterlimit:4;stroke-dasharray:none;stroke-opacity:1"
       d="m 104.96086,187.09543 -3.54455,13.89504 5.31683,19.85006 -3.54455,1.98502"
       id="path2546"
       inkscape:connector-curvature="0" />
    <path
       style="fill:none;stroke:#000000;stroke-width:3;stroke-linecap:round;stroke-linejoin:round;stroke-miterlimit:4;stroke-dasharray:none;stroke-opacity:1"
       d="m 107.9787,144.34075 -13.338226,21.49947 4.82936,10.0916"
       id="path2436-7"
       inkscape:connector-curvature="0" />
    <path
       style="fill:none;stroke:#000000;stroke-width:3;stroke-linecap:round;stroke-linejoin:round;stroke-miterlimit:4;stroke-dasharray:none;stroke-opacity:1"
       d="m 126.04589,144.01396 13.97901,23.5546 -5.06137,11.05625"
       id="path2436"
       inkscape:connector-curvature="0" />
    <path
       style="fill:#ffffff;stroke:#000000;stroke-width:0.97326094;stroke-linecap:butt;stroke-linejoin:miter;stroke-miterlimit:4;stroke-dasharray:none;stroke-opacity:1"
       d="m 108.56292,145.17219 17.20819,-0.13932 c 0,0 10.18059,43.88989 7.80673,45.92446 -4.08655,3.50245 -29.20669,3.1859 -33.48337,-1.25168 -2.830736,-2.93724 8.46845,-44.53346 8.46845,-44.53346 z"
       id="path2434"
       inkscape:connector-curvature="0"
       sodipodi:nodetypes="ccssc" />
    <g
       id="g2601"
       transform="matrix(0.9053663,0,0,0.88810015,315.77898,488.33099)">
      <path
         inkscape:connector-curvature="0"
         sodipodi:nodetypes="cssssssccccssc"
         id="path965-7-1-5-0-3-6"
         d="m -197.65333,-412.73115 -1.0115,9.0928 c -0.66871,6.01139 -0.52336,8.50419 -4.97723,13.31256 -1.92184,2.07481 -9.78549,8.14721 -14.62151,8.00703 -4.69471,-0.13608 -12.98228,-4.14547 -17.36681,-8.60202 -3.17739,-3.22957 -5.22778,-10.46336 -5.60754,-13.99023 -0.53438,-4.96276 0.77371,-1.59308 1.05963,-8.04093 0.32869,-7.41262 0.82614,-12.97159 0.82614,-12.97159 -1.47305,-4.12475 10.03415,-2.44112 14.53592,-3.70651 l 22.33926,0.35442 8.15801,7.15938 c 0,0 -4.75763,-1.30347 -4.10381,5.92306 0.11873,1.31231 0.40218,2.18631 0.76944,3.46203 z"
         style="fill:#ffe6d5;stroke:#000000;stroke-width:0.5;stroke-linecap:butt;stroke-linejoin:miter;stroke-miterlimit:4;stroke-dasharray:none;stroke-opacity:1" />
      <path
         inkscape:connector-curvature="0"
         sodipodi:nodetypes="csccccccccccccccc"
         id="path901-7-2-4-6-8-7"
         d="m -197.35361,-428.11369 c -0.39171,0.35872 1.8562,18.2553 0.56765,18.92448 -1.6651,0.86473 -2.16481,-15.0562 -2.62119,-15.18961 0.30556,-3.00661 -5.76815,4.01892 -9.33958,3.90746 2.97401,-2.04729 5.75958,-4.3173 7.46767,-7.86068 -5.10723,3.86202 -10.35785,7.43723 -16.1581,9.9132 2.94071,-2.48855 7.43793,-6.63977 8.9088,-11.398 -2.33964,3.17036 -5.00329,4.23469 -7.555,6.02653 1.62646,-1.72953 4.10561,-4.36741 4.62907,-7.46765 -5.23385,4.98648 -11.63915,8.11818 -18.25429,10.91762 2.26248,-1.73294 4.60289,-3.29054 6.41957,-6.02653 -3.7304,3.54417 -8.6355,4.73895 -13.10116,6.8126 1.17702,-1.212 2.77139,-2.19635 2.75124,-4.06135 -0.37255,2.05174 -3.09115,2.76288 -4.93476,3.974 l 10.48092,-11.70369 26.81371,-0.7424 z"
         style="fill:#1a1a1a;stroke:none;stroke-width:0.26458299px;stroke-linecap:butt;stroke-linejoin:miter;stroke-opacity:1" />
      <path
         inkscape:connector-curvature="0"
         sodipodi:nodetypes="cc"
         id="path971-4-4-1-0-2-1"
         d="m -216.48885,-403.35613 c -1.24613,-0.71333 -2.03329,-0.5741 -3.06447,-0.16894"
         style="opacity:0.506;fill:none;stroke:#000000;stroke-width:0.1;stroke-linecap:butt;stroke-linejoin:miter;stroke-miterlimit:4;stroke-dasharray:none;stroke-opacity:1" />
      <path
         inkscape:connector-curvature="0"
         sodipodi:nodetypes="ssaaaccccccccccccccccccccs"
         id="path952-3-2-3-0-7-9"
         d="m -193.39752,-426.68506 c -1.43496,-4.98313 -2.4844,-6.82966 -8.74711,-11.76596 -2.72916,-2.15115 -6.22625,-3.28994 -9.62878,-3.99608 -2.81386,-0.58396 -5.74672,-0.10398 -8.62036,-0.13684 -3.63345,-0.0415 -7.43868,-1.1796 -10.9008,-0.0762 -5.03741,1.6054 -9.60078,5.37567 -12.87175,9.26784 -4.02682,10.55239 0.84935,22.61852 2.54761,31.16572 2.01163,-4.47133 0.84025,-26.82023 0.63749,-5.87272 l 1.14344,-9.40974 0.17634,4.95308 2.29607,-7.3465 c 1.65894,-1.68783 3.5165,-1.2922 4.53886,-4.25322 0.40346,1.82791 -1.15418,4.28217 -2.18918,5.17923 3.72812,-0.1911 6.03789,-3.37294 9.08277,-5.44293 l -3.70366,5.46405 c 4.13869,-2.02308 6.48957,-3.36917 10.10464,-6.61404 -2.00137,3.87384 -3.45018,5.31572 -5.50447,7.2326 5.13208,-1.49783 6.06882,-3.4033 10.33229,-7.50698 -1.10326,2.33829 0.85288,4.61562 -1.413,6.62173 4.44435,-1.34231 5.19667,-4.53016 9.29494,-7.0837 -0.78777,2.4646 0.15647,5.46484 -1.1532,6.88567 3.02582,-0.0695 2.50922,-3.48062 4.18953,-4.56022 0.41123,1.09904 3.55701,4.6382 3.10243,6.4299 1.02533,-1.17641 0.53059,-3.33197 0.86424,-5.89169 0.80549,7.45726 1.51818,20.10833 1.51818,20.10833 0,0 6.46073,-17.94339 4.90348,-23.3513 z"
         style="display:inline;fill:#333333;stroke:#000000;stroke-width:0.26458299px;stroke-linecap:butt;stroke-linejoin:miter;stroke-opacity:1" />
      <g
         transform="rotate(-5.2338077,-4441.6565,1676.5444)"
         id="g1111-68-2-3-1-22">
        <path
           style="fill:#ffe6d5;stroke:#000000;stroke-width:0.26458332px;stroke-linecap:butt;stroke-linejoin:miter;stroke-opacity:1"
           d="m -67.018179,-19.048118 c 0,0 -1.823102,-4.825514 -3.732086,-4.471705 -2.336597,0.433063 -2.449908,4.375025 -2.303185,6.74688 0.203713,3.293121 0.225083,7.8374627 2.276722,7.8275266 0.375306,-0.00182 0.819466,0.2446962 1.254283,0.00348 0.97468,-0.5407165 1.57453,-1.5544676 1.57453,-1.5544676"
           id="path837-0-2-7-7-5-2"
           inkscape:connector-curvature="0"
           sodipodi:nodetypes="casssc" />
        <path
           style="fill:#ffccaa;stroke:none;stroke-width:0.26458332px;stroke-linecap:butt;stroke-linejoin:miter;stroke-opacity:1"
           d="m -72.140075,-18.365497 c 0.137905,-1.204676 0.03436,-3.302416 1.241255,-3.419305 1.477845,-0.143131 2.295149,3.817446 2.295149,3.817446 l -0.09368,1.897009 c -2.492559,-0.851095 -1.55902,2.161583 -1.639392,2.529351 -0.244844,0.80527 -0.234199,0.913376 -0.234199,0.913376 -0.662664,-0.218173 0.516128,2.365542 -0.632335,2.014112 -0.469852,-1.402144 -1.232821,-5.166082 -0.936798,-7.751989 z"
           id="path896-2-2-3-2-2-8"
           inkscape:connector-curvature="0"
           sodipodi:nodetypes="aaccccca" />
        <path
           style="fill:none;stroke:#000000;stroke-width:0.26458332px;stroke-linecap:butt;stroke-linejoin:miter;stroke-opacity:1"
           d="m -69.123943,-15.762731 c -0.753245,-0.178719 -1.36948,-0.562949 -1.769845,-1.270985"
           id="path839-3-2-8-1-3-3"
           inkscape:connector-curvature="0"
           sodipodi:nodetypes="cc" />
        <path
           style="fill:none;stroke:#000000;stroke-width:0.26458332px;stroke-linecap:butt;stroke-linejoin:miter;stroke-opacity:1"
           d="m -69.518904,-15.47524 c -0.576453,-0.0275 -1.152905,0.181102 -1.729357,0.683387"
           id="path841-1-82-1-7-9-6"
           inkscape:connector-curvature="0"
           sodipodi:nodetypes="cc" />
        <path
           style="fill:none;stroke:#000000;stroke-width:0.14399222px;stroke-linecap:butt;stroke-linejoin:miter;stroke-opacity:1"
           d="m -69.968258,-15.655242 c -0.372241,-0.107111 -0.610533,-0.337391 -0.808387,-0.761738"
           id="path839-6-6-9-0-5-8-1"
           inkscape:connector-curvature="0"
           sodipodi:nodetypes="cc" />
      </g>
      <path
         inkscape:connector-curvature="0"
         sodipodi:nodetypes="cccccccccc"
         id="path967-8-1-6-4-1-9"
         d="m -219.94373,-443.2048 c 2.11147,-2.12452 0.80631,-1.925 5.23411,-2.69833 -3.38782,1.39616 -0.77083,3.4508 -2.71853,4.64999 4.17281,-1.99131 4.17114,-1.33443 7.17565,-1.37856 -4.50851,0.31182 -5.62661,2.56903 -9.76746,4.35151 l -7.2418,-1.75328 c -0.0211,-1.84948 -3.80533,-2.84853 -5.7172,-4.26885 3.40764,0.91203 7.34525,1.29409 9.83359,3.12541 -0.91561,-1.93904 -3.3543,-2.8627 -5.41229,-4.04016 3.12194,0.0984 8.2168,2.56679 8.61393,2.01227 z"
         style="fill:#333333;stroke:none;stroke-width:0.26458299px;stroke-linecap:butt;stroke-linejoin:miter;stroke-opacity:1" />
      <ellipse
         transform="matrix(0.99762876,-0.0688249,-0.01455926,0.99989401,0,0)"
         ry="0.72535753"
         rx="0.32618701"
         cy="-417.33112"
         cx="-225.65842"
         id="path876-4-5-1-7-7-1"
         style="opacity:1;fill:#ffccaa;fill-opacity:1;fill-rule:nonzero;stroke:none;stroke-width:0.08776682;stroke-linecap:round;stroke-linejoin:round;stroke-miterlimit:4;stroke-dasharray:none;stroke-dashoffset:0;stroke-opacity:1" />
      <ellipse
         transform="matrix(0.9972169,-0.07455509,0.01168595,0.99993172,0,0)"
         ry="0.77407664"
         rx="0.32649156"
         cy="-417.57025"
         cx="-212.78389"
         id="path876-2-6-5-1-3-4-7"
         style="opacity:1;fill:#ffccaa;fill-opacity:1;fill-rule:nonzero;stroke:none;stroke-width:0.0907087;stroke-linecap:round;stroke-linejoin:round;stroke-miterlimit:4;stroke-dasharray:none;stroke-dashoffset:0;stroke-opacity:1" />
      <path
         sodipodi:nodetypes="cscsc"
         inkscape:connector-curvature="0"
         id="path893-6-3-1-9-6-9"
         d="m -216.0154,-388.88773 c -0.14255,0.45373 -0.79556,-0.21522 -1.84262,-0.54417 -1.04707,-0.32896 -2.0917,-0.19335 -1.94915,-0.64707 0.14254,-0.45374 1.10691,-0.55489 2.15398,-0.22593 1.04707,0.32895 1.78034,0.96344 1.63779,1.41717 z"
         style="opacity:0.37900002;fill:#ffb380;fill-opacity:1;fill-rule:nonzero;stroke:none;stroke-width:0.1;stroke-linecap:round;stroke-linejoin:round;stroke-miterlimit:4;stroke-dasharray:none;stroke-dashoffset:0;stroke-opacity:1" />
      <ellipse
         ry="5.9836416"
         rx="6.6720319"
         cy="-411.70248"
         cx="-230.41191"
         id="path898-7-40-7-1-6-3"
         style="opacity:0.61799999;fill:#ffffff;fill-opacity:1;fill-rule:nonzero;stroke:none;stroke-width:0.09135424;stroke-linecap:round;stroke-linejoin:round;stroke-miterlimit:4;stroke-dasharray:none;stroke-dashoffset:0;stroke-opacity:1" />
      <ellipse
         transform="matrix(0.99957759,-0.02906267,0.02183341,0.99976162,0,0)"
         ry="5.6971211"
         rx="2.9639719"
         cy="-418.35443"
         cx="-220.26282"
         id="path879-62-5-1-6-0-1"
         style="fill:#483737;stroke:none;stroke-width:0.27136499" />
      <path
         sodipodi:nodetypes="sssss"
         inkscape:connector-curvature="0"
         id="path835-9-5-5-0-6-5"
         d="m -220.27929,-415.76989 c -0.16179,3.14414 -0.36582,7.3177 0.15029,9.45801 0.27975,1.16014 3.76576,1.88945 3.58016,-0.004 -0.46982,-4.79241 -0.13018,-6.81295 -0.0692,-10.00885 0.0356,-1.8637 -3.5978,-0.67801 -3.66123,0.55469 z"
         style="opacity:0.61799999;fill:#ffccaa;stroke:none;stroke-width:0.26458332px;stroke-linecap:butt;stroke-linejoin:miter;stroke-opacity:1" />
      <path
         inkscape:connector-curvature="0"
         sodipodi:nodetypes="cc"
         id="path969-6-7-5-1-3-6"
         d="m -220.7818,-404.91594 c 1.58331,-0.37044 3.19976,-0.37629 4.87869,0.30491"
         style="opacity:0.553;fill:#ffb380;stroke:#ffccaa;stroke-width:0.1;stroke-linecap:butt;stroke-linejoin:miter;stroke-miterlimit:4;stroke-dasharray:none;stroke-opacity:1" />
      <path
         sodipodi:nodetypes="ccaccsscc"
         inkscape:connector-curvature="0"
         id="path916-1-5-9-3-2-8"
         d="m -231.80809,-413.79565 1.1661,1.48726 c 0,0 0.5142,1.81947 1.25333,1.82944 0.96574,0.013 1.70144,-2.34531 1.70144,-2.34531 l 1.2715,-0.12479 c 0.15001,0.0359 0.15308,1.56325 -0.11694,3.00772 -0.152,0.81318 -0.42565,1.55433 -0.72235,2.10046 -0.39349,0.72433 -1.32776,1.72194 -1.82894,1.66444 -2.99229,-0.24268 -3.53266,-6.40424 -2.72414,-7.61922 z"
         style="opacity:0.53800001;fill:#6c5353;stroke:none;stroke-width:0.26484025px;stroke-linecap:butt;stroke-linejoin:miter;stroke-opacity:1" />
      <ellipse
         ry="5.9836416"
         rx="6.2083416"
         cy="-411.94348"
         cx="-207.57137"
         id="path898-4-3-1-8-3-8-7"
         style="opacity:0.61799999;fill:#ffffff;fill-opacity:1;fill-rule:nonzero;stroke:none;stroke-width:0.08812264;stroke-linecap:round;stroke-linejoin:round;stroke-miterlimit:4;stroke-dasharray:none;stroke-dashoffset:0;stroke-opacity:1" />
      <ellipse
         transform="rotate(-0.54461036)"
         ry="5.6990032"
         rx="2.8167489"
         cy="-413.70596"
         cx="-204.48141"
         id="path879-6-7-9-6-8-6-18"
         style="fill:#483737;stroke:none;stroke-width:0.26458299" />
      <path
         sodipodi:nodetypes="ccccccc"
         inkscape:connector-curvature="0"
         id="path981-6-8-1-1-0-7-0"
         d="m -214.03615,-417.80614 c 3.7812,-1.27186 5.01622,-2.04555 5.01622,-2.04555 3.50902,1.09993 4.23706,1.04751 7.52916,3.07051 l -1.31722,-0.30982 1.45252,1.08078 c -2.77768,-1.83582 -4.75225,-1.75996 -7.88675,-2.53709 z"
         style="fill:#333333;stroke:none;stroke-width:0.26672757px;stroke-linecap:butt;stroke-linejoin:miter;stroke-opacity:1" />
      <path
         sodipodi:nodetypes="ccaccsscc"
         inkscape:connector-curvature="0"
         id="path916-9-5-1-8-0-2-8"
         d="m -210.94034,-412.76916 0.98338,0.73155 c 0,0 0.58821,1.79691 1.32714,1.77663 0.96545,-0.0265 1.60407,-2.41296 1.60407,-2.41296 l 1.26533,-0.1767 c 0.15135,0.0297 0.0669,1.55516 -0.14375,3.00946 -0.11861,0.81872 -0.47697,1.58284 -0.75107,2.14066 -0.36354,0.73982 -0.95826,1.29305 -1.46139,1.25611 -2.87945,-0.133 -3.1669,-5.12234 -2.82371,-6.32475 z"
         style="opacity:0.53800001;fill:#6c5353;stroke:none;stroke-width:0.26484025px;stroke-linecap:butt;stroke-linejoin:miter;stroke-opacity:1" />
      <path
         inkscape:connector-curvature="0"
         sodipodi:nodetypes="czzcczzcc"
         id="path903-5-8-0-8-5-9"
         d="m -222.48383,-411.55562 c 0,0 1.30579,-1.2761 2.22371,-1.61935 0.91791,-0.34326 2.71014,-0.38357 3.54838,0.05 0.83823,0.43359 1.62485,1.67714 1.62485,1.67714 l 0.11003,-2.1162 c 0,0 -0.75106,-0.94145 -1.47125,-1.22555 -0.72019,-0.28411 -3.36222,-0.34814 -4.31501,-0.0242 -0.95279,0.32397 -1.83531,1.35563 -1.83531,1.35563 z"
         style="fill:#0b2228;stroke:#000000;stroke-width:0.26458299px;stroke-linecap:butt;stroke-linejoin:miter;stroke-opacity:1" />
      <ellipse
         ry="0.72865629"
         rx="0.66241479"
         cy="-411.888"
         cx="-208.45442"
         id="path979-6-5-2-4-4-3-2-3-25"
         style="fill:#ffffff;stroke:none;stroke-width:0.18541047" />
      <path
         sodipodi:nodetypes="ccccccc"
         inkscape:connector-curvature="0"
         id="path981-9-0-7-4-2-9"
         d="m -222.99191,-417.04387 c -4.08357,-2.15243 -5.34902,-3.32164 -5.34902,-3.32164 l -12.58313,4.44808 3.87357,-0.89931 -2.3445,0.7376 11.05963,-2.55986 z"
         style="fill:#333333;stroke:none;stroke-width:0.32817522px;stroke-linecap:butt;stroke-linejoin:miter;stroke-opacity:1" />
      <g
         transform="matrix(-0.99731171,-0.07327594,-0.07327594,0.99731171,-267.71244,-397.58389)"
         id="g1111-6-4-0-6-2-1">
        <path
           style="fill:#ffe6d5;stroke:#000000;stroke-width:0.26458332px;stroke-linecap:butt;stroke-linejoin:miter;stroke-opacity:1"
           d="m -67.018179,-19.048118 c 0,0 -1.823102,-4.825514 -3.732086,-4.471705 -2.336597,0.433063 -2.449908,4.375025 -2.303185,6.74688 0.203713,3.293121 0.225083,7.8374627 2.276722,7.8275266 0.375306,-0.00182 0.819466,0.2446962 1.254283,0.00348 0.97468,-0.5407165 1.57453,-1.5544676 1.57453,-1.5544676"
           id="path837-0-1-5-4-4-9-0"
           inkscape:connector-curvature="0"
           sodipodi:nodetypes="casssc" />
        <path
           style="fill:#ffccaa;stroke:none;stroke-width:0.26458332px;stroke-linecap:butt;stroke-linejoin:miter;stroke-opacity:1"
           d="m -72.140075,-18.365497 c 0.137905,-1.204676 0.03436,-3.302416 1.241255,-3.419305 1.477845,-0.143131 2.295149,3.817446 2.295149,3.817446 l -0.09368,1.897009 c -2.492559,-0.851095 -1.55902,2.161583 -1.639392,2.529351 -0.244844,0.80527 -0.234199,0.913376 -0.234199,0.913376 -0.662664,-0.218173 0.516128,2.365542 -0.632335,2.014112 -0.469852,-1.402144 -1.232821,-5.166082 -0.936798,-7.751989 z"
           id="path896-2-7-7-9-2-1-70"
           inkscape:connector-curvature="0"
           sodipodi:nodetypes="aaccccca" />
        <path
           style="fill:none;stroke:#000000;stroke-width:0.26458332px;stroke-linecap:butt;stroke-linejoin:miter;stroke-opacity:1"
           d="m -69.123943,-15.762731 c -0.753245,-0.178719 -1.36948,-0.562949 -1.769845,-1.270985"
           id="path839-3-3-2-2-6-9-4"
           inkscape:connector-curvature="0"
           sodipodi:nodetypes="cc" />
        <path
           style="fill:none;stroke:#000000;stroke-width:0.26458332px;stroke-linecap:butt;stroke-linejoin:miter;stroke-opacity:1"
           d="m -69.518904,-15.47524 c -0.576453,-0.0275 -1.152905,0.181102 -1.729357,0.683387"
           id="path841-1-5-70-2-6-1-6"
           inkscape:connector-curvature="0"
           sodipodi:nodetypes="cc" />
        <path
           style="fill:none;stroke:#000000;stroke-width:0.14399222px;stroke-linecap:butt;stroke-linejoin:miter;stroke-opacity:1"
           d="m -69.968258,-15.655242 c -0.372241,-0.107111 -0.610533,-0.337391 -0.808387,-0.761738"
           id="path839-6-6-6-0-0-3-2-1"
           inkscape:connector-curvature="0"
           sodipodi:nodetypes="cc" />
      </g>
      <path
         sodipodi:nodetypes="ccccccsccccccccccccccc"
         id="rect846-3-8-2-2-4-9"
         style="fill:#0b2228;stroke:#000000;stroke-width:0.2719017"
         d="m -223.48047,-417.61162 c -0.068,-0.0117 -0.13847,-0.0166 -0.21033,-0.0147 l -14.44927,0.38244 c -0.57481,0.0152 -1.02726,0.48105 -1.01024,1.04448 l 0.26502,7.39025 c -0.1335,0.93972 1.68665,3.47632 2.66129,3.28548 l 12.3632,0.0249 c 0.57501,10e-4 1.50956,-1.06851 1.49418,-1.63199 l -0.25948,-9.50603 c -0.0135,-0.49305 -0.3783,-0.89272 -0.85437,-0.97471 z m -1.27886,1.12277 c 0.50815,0.0802 0.89625,0.47196 0.91181,0.95518 l 0.25575,7.94178 c 0.0177,0.55226 -0.40943,0.90935 -1.02339,0.92432 l -11.38123,-0.009 c -0.61396,0.015 -1.77039,-1.37977 -1.78405,-1.93215 l -0.0954,-6.57916 c -0.0137,-0.55237 0.46627,-1.00906 1.08023,-1.02419 l 11.8119,-0.29092 c 0.0767,-0.002 0.15177,0.003 0.22436,0.0143 z"
         inkscape:connector-curvature="0" />
      <path
         sodipodi:nodetypes="ccccccccccccccccccc"
         id="rect846-4-1-1-1-5-8-1"
         style="fill:#0b2228;stroke:#000000;stroke-width:0.2719017"
         d="m -213.61543,-418.10696 c -0.57485,-0.0137 -1.72098,0.83318 -1.73177,1.39676 l -0.18276,9.51208 c -0.0108,0.56359 0.93591,1.57273 1.51092,1.57471 l 12.01972,10e-4 c 0.69176,0.1688 2.90836,-2.0247 2.82512,-2.73326 l 0.28914,-8.1085 c 0.0184,-0.56339 -0.65967,-1.30776 -1.23452,-1.32144 z m 0.61392,1.24149 11.81468,0.0945 c 0.61413,0.005 1.10158,0.4537 1.0971,1.00622 l -0.12977,7.01005 c -0.005,0.55253 -1.31591,1.99044 -1.93003,1.98569 l -10.98701,-0.0248 c -0.61412,-0.005 -1.1171,-0.58566 -1.10856,-1.13814 l 0.12348,-7.9453 c 0.009,-0.55248 0.50599,-0.99321 1.12011,-0.9883 z"
         inkscape:connector-curvature="0" />
      <ellipse
         ry="0.72865629"
         rx="0.66241479"
         cy="-411.99011"
         cx="-229.42494"
         id="path979-6-5-23-68-0-5-6-3"
         style="fill:#ffffff;stroke:none;stroke-width:0.18541047" />
      <path
         sodipodi:nodetypes="aaaaa"
         inkscape:connector-curvature="0"
         id="path1739-2-2-6-5"
         d="m -220.10383,-393.25707 c 0.004,-1.29675 1.45142,-1.74497 2.30739,-1.70999 0.80556,0.0329 2.16977,0.56719 2.11102,1.78434 -0.0638,1.32204 -1.58048,1.47917 -2.45467,1.41259 -0.73092,-0.0557 -1.96687,-0.37865 -1.96374,-1.48694 z"
         style="fill:#2b0000;stroke:none;stroke-width:0.17063236px;stroke-linecap:butt;stroke-linejoin:miter;stroke-opacity:1" />
    </g>
    <ellipse
       style="opacity:1;fill:#000000;fill-opacity:1;fill-rule:nonzero;stroke:none;stroke-width:1.57805145;stroke-linecap:round;stroke-linejoin:round;stroke-miterlimit:4;stroke-dasharray:none;stroke-dashoffset:0;stroke-opacity:1"
       id="path2529"
       cx="98.089836"
       cy="176.63284"
       rx="2.4963939"
       ry="2.1771326" />
    <ellipse
       style="opacity:1;fill:#000000;fill-opacity:1;fill-rule:nonzero;stroke:none;stroke-width:1.57805157;stroke-linecap:round;stroke-linejoin:round;stroke-miterlimit:4;stroke-dasharray:none;stroke-dashoffset:0;stroke-opacity:1"
       id="path2529-5"
       cx="137.53203"
       cy="177.98187"
       rx="2.4963939"
       ry="2.1771326" />
    <path
       style="fill:#ececec;stroke:none;stroke-width:0.26458332px;stroke-linecap:butt;stroke-linejoin:miter;stroke-opacity:1"
       d="m 108.24036,148.26043 -3.90115,43.07794 c 0,0 -4.380426,-1.43469 -4.386676,-2.31895 -0.0551,-7.79515 5.096156,-28.32539 8.287826,-40.75899 z"
       id="path2563"
       inkscape:connector-curvature="0"
       sodipodi:nodetypes="ccsc" />
  </g>
</svg>
